<svg version="1.1" id="Layer_1" xmlns="http://www.w3.org/2000/svg" xmlns:xlink="http://www.w3.org/1999/xlink" x="0px" y="0px"
	 width="100%" viewBox="0 0 362 226" enable-background="new 0 0 362 226" xml:space="preserve">
<path fill="#FCFDFE" opacity="1.000000" stroke="none" 
	d="
M265.000000,227.000000 
	C176.704010,227.000000 88.908020,227.000000 1.056015,227.000000 
	C1.056015,151.736069 1.056015,76.472092 1.056015,1.104058 
	C121.545914,1.104058 242.091934,1.104058 362.818970,1.104058 
	C362.818970,76.332970 362.818970,151.666458 362.818970,227.000000 
	C330.472198,227.000000 297.986115,227.000000 265.000000,227.000000 
M172.359741,205.661240 
	C177.751251,205.113647 183.142746,204.566071 188.594604,204.012360 
	C188.594604,200.653961 188.594604,198.058716 188.594604,195.190826 
	C183.617661,194.965103 177.452881,196.482178 174.494431,194.068802 
	C171.242752,191.416199 170.940826,185.146179 169.364227,180.448730 
	C169.315506,180.303589 169.383667,180.119202 169.397339,179.953110 
	C169.610687,180.077774 169.824020,180.202438 170.037369,180.327103 
	C172.494598,176.140900 174.951828,171.954697 177.811157,167.083466 
	C180.829208,167.083466 184.804810,167.095123 188.780319,167.081146 
	C198.250626,167.047867 205.345474,162.941086 210.111069,154.733429 
	C213.366653,149.126434 216.729050,143.581451 220.042480,138.008026 
	C232.441879,117.151321 244.840744,96.294296 257.468140,75.053375 
	C258.027893,76.340858 258.466248,77.161148 258.751068,78.031662 
	C265.824005,99.648140 272.963684,121.243690 279.821991,142.928192 
	C280.571747,145.298752 280.350647,148.445877 279.437775,150.787567 
	C276.297333,158.843414 279.275818,167.589157 286.855774,171.129532 
	C294.556183,174.726166 303.566376,171.579391 307.224060,164.016022 
	C310.969879,156.270523 307.986938,147.821320 300.444244,143.475525 
	C298.439392,142.320358 296.480377,140.041565 295.761993,137.862717 
	C289.992584,120.363869 284.524750,102.765572 278.966431,85.197144 
	C277.043182,79.118172 275.124817,73.037659 273.164795,66.833031 
	C274.481262,66.551491 275.118927,66.364502 275.769745,66.283478 
	C287.151215,64.866516 293.236938,58.086060 293.308685,46.585030 
	C293.367950,37.086102 293.317352,27.586504 293.324066,18.087208 
	C293.325928,15.453290 293.224243,12.901819 289.633484,12.796614 
	C285.661774,12.680247 285.663177,15.449736 285.667633,18.254637 
	C285.682465,27.587261 286.014526,36.938770 285.496887,46.242527 
	C285.310883,49.585499 283.843658,53.560520 281.583313,55.936028 
	C277.095215,60.652786 271.160248,58.780632 269.131989,52.692631 
	C265.142914,40.718952 261.085083,28.767673 257.180237,16.766600 
	C254.691467,9.117560 249.350891,4.736401 241.611343,3.960399 
	C234.346466,3.231991 226.980606,3.263170 219.665497,3.374541 
	C215.098602,3.444070 212.442749,6.592981 212.748291,10.801416 
	C213.073456,15.279864 215.810928,17.213331 220.084106,17.248598 
	C224.916779,17.288481 229.752396,17.357679 234.582153,17.234230 
	C238.256683,17.140310 240.556213,18.650517 241.679871,22.174171 
	C244.858368,32.141418 248.160583,42.069721 251.256165,52.062271 
	C251.638824,53.297489 251.518890,55.100090 250.869919,56.183239 
	C232.752197,86.422272 214.537613,116.603271 196.333862,146.790756 
	C194.343094,150.092072 191.382385,151.502411 187.549347,151.460068 
	C180.886047,151.386475 174.211975,151.234650 167.561066,151.532288 
	C164.192032,151.683090 163.019043,150.274384 162.072906,147.340439 
	C153.818771,121.744606 145.417587,96.196213 137.078201,70.627823 
	C136.533722,68.958473 136.138397,67.240471 135.680237,65.568985 
	C141.565292,64.691948 147.011627,64.001984 152.393768,62.975452 
	C153.469223,62.770332 155.051056,61.330853 155.114517,60.375214 
	C155.406464,55.978642 155.243149,51.551838 155.243149,47.261765 
	C135.109863,47.261765 115.712852,47.261765 96.316750,47.261765 
	C96.316750,52.555107 96.316750,57.482765 96.316750,62.699680 
	C100.301254,63.341354 104.123589,64.733856 107.785835,64.395172 
	C117.254486,63.519512 120.513321,68.859093 121.733360,76.828720 
	C121.777359,77.116142 121.585945,77.439606 121.418900,78.066605 
	C118.181473,78.066605 114.862808,78.060310 111.544174,78.068039 
	C106.125206,78.080658 101.862648,80.275360 99.047882,84.948349 
	C86.606979,105.602394 74.091576,126.212891 61.833969,146.975418 
	C56.358704,156.249695 61.748287,165.970749 72.460472,166.675079 
	C75.780647,166.893372 79.123993,166.781631 82.456741,166.782791 
	C103.436615,166.789993 124.416489,166.786423 143.185257,166.786423 
	C147.334366,172.004639 149.586288,177.559891 153.449341,179.116333 
	C160.995605,182.156723 160.587250,188.304123 162.726562,194.197647 
	C158.961960,194.391556 155.857025,194.551498 152.564178,194.721115 
	C152.455444,195.985413 152.470398,196.968033 152.273514,197.906189 
	C151.278351,202.648315 153.531479,204.506088 158.003693,204.721085 
	C162.491821,204.936829 166.969650,205.366608 172.359741,205.661240 
M336.067352,209.624771 
	C368.994080,182.309555 368.142609,131.971420 335.487488,105.792984 
	C321.193817,94.334244 304.870422,89.695465 285.970947,91.460274 
	C287.517395,96.439972 289.125977,100.943314 290.279846,105.560303 
	C291.123291,108.935234 292.517456,110.251274 296.331451,110.422859 
	C319.127747,111.448410 338.382843,130.009171 340.880005,152.902969 
	C343.320892,175.280716 328.599518,197.429596 307.183014,203.601425 
	C284.567108,210.118927 260.455902,199.450974 250.522095,178.531998 
	C240.941452,158.356750 246.075912,136.051453 263.665100,120.766182 
	C264.925903,119.670532 266.402802,117.422371 266.076508,116.145119 
	C264.692810,110.728981 262.665924,105.477150 260.779999,99.886436 
	C259.173645,100.653084 257.918762,101.101974 256.820404,101.797913 
	C217.773804,126.538300 216.482056,185.366592 254.186249,212.265793 
	C276.798889,228.398300 310.369720,230.194763 336.067352,209.624771 
M24.896601,108.369797 
	C6.719760,125.689064 -0.733052,146.889175 4.502717,171.372284 
	C15.226572,221.518372 72.872925,241.479965 112.775101,209.251038 
	C122.589722,201.323776 129.345871,191.150421 133.323090,179.181961 
	C135.270401,173.321960 134.846573,172.800888 128.890656,172.760773 
	C125.892097,172.740585 122.866241,173.005798 119.901627,172.687088 
	C116.333611,172.303528 114.801895,173.800064 113.412056,177.015121 
	C103.894035,199.032761 79.081024,210.545807 56.306458,203.591080 
	C44.719090,200.052612 35.464401,193.152817 29.332355,182.664581 
	C23.571880,172.811844 20.639008,162.370316 22.708986,150.600937 
	C27.073383,125.786057 49.169621,108.263062 74.228058,110.309441 
	C75.611687,110.422432 77.814560,110.568619 78.314362,109.818588 
	C81.757431,104.651642 84.848656,99.250244 88.347023,93.435623 
	C64.276085,87.896400 43.551060,92.317436 24.896601,108.369797 
z"/>
<path fill="#0337DF" opacity="1.000000" stroke="none" 
	d="
M171.905869,205.681915 
	C166.969650,205.366608 162.491821,204.936829 158.003693,204.721085 
	C153.531479,204.506088 151.278351,202.648315 152.273514,197.906189 
	C152.470398,196.968033 152.455444,195.985413 152.564178,194.721115 
	C155.857025,194.551498 158.961960,194.391556 162.726562,194.197647 
	C160.587250,188.304123 160.995605,182.156723 153.449341,179.116333 
	C149.586288,177.559891 147.334366,172.004639 143.185257,166.786423 
	C124.416489,166.786423 103.436615,166.789993 82.456741,166.782791 
	C79.123993,166.781631 75.780647,166.893372 72.460472,166.675079 
	C61.748287,165.970749 56.358704,156.249695 61.833969,146.975418 
	C74.091576,126.212891 86.606979,105.602394 99.047882,84.948349 
	C101.862648,80.275360 106.125206,78.080658 111.544174,78.068039 
	C114.862808,78.060310 118.181473,78.066605 121.418900,78.066605 
	C121.585945,77.439606 121.777359,77.116142 121.733360,76.828720 
	C120.513321,68.859093 117.254486,63.519512 107.785835,64.395172 
	C104.123589,64.733856 100.301254,63.341354 96.316750,62.699680 
	C96.316750,57.482765 96.316750,52.555107 96.316750,47.261765 
	C115.712852,47.261765 135.109863,47.261765 155.243149,47.261765 
	C155.243149,51.551838 155.406464,55.978642 155.114517,60.375214 
	C155.051056,61.330853 153.469223,62.770332 152.393768,62.975452 
	C147.011627,64.001984 141.565292,64.691948 135.680237,65.568985 
	C136.138397,67.240471 136.533722,68.958473 137.078201,70.627823 
	C145.417587,96.196213 153.818771,121.744606 162.072906,147.340439 
	C163.019043,150.274384 164.192032,151.683090 167.561066,151.532288 
	C174.211975,151.234650 180.886047,151.386475 187.549347,151.460068 
	C191.382385,151.502411 194.343094,150.092072 196.333862,146.790756 
	C214.537613,116.603271 232.752197,86.422272 250.869919,56.183239 
	C251.518890,55.100090 251.638824,53.297489 251.256165,52.062271 
	C248.160583,42.069721 244.858368,32.141418 241.679871,22.174171 
	C240.556213,18.650517 238.256683,17.140310 234.582153,17.234230 
	C229.752396,17.357679 224.916779,17.288481 220.084106,17.248598 
	C215.810928,17.213331 213.073456,15.279864 212.748291,10.801416 
	C212.442749,6.592981 215.098602,3.444070 219.665497,3.374541 
	C226.980606,3.263170 234.346466,3.231991 241.611343,3.960399 
	C249.350891,4.736401 254.691467,9.117560 257.180237,16.766600 
	C261.085083,28.767673 265.142914,40.718952 269.131989,52.692631 
	C271.160248,58.780632 277.095215,60.652786 281.583313,55.936028 
	C283.843658,53.560520 285.310883,49.585499 285.496887,46.242527 
	C286.014526,36.938770 285.682465,27.587261 285.667633,18.254637 
	C285.663177,15.449736 285.661774,12.680247 289.633484,12.796614 
	C293.224243,12.901819 293.325928,15.453290 293.324066,18.087208 
	C293.317352,27.586504 293.367950,37.086102 293.308685,46.585030 
	C293.236938,58.086060 287.151215,64.866516 275.769745,66.283478 
	C275.118927,66.364502 274.481262,66.551491 273.164795,66.833031 
	C275.124817,73.037659 277.043182,79.118172 278.966431,85.197144 
	C284.524750,102.765572 289.992584,120.363869 295.761993,137.862717 
	C296.480377,140.041565 298.439392,142.320358 300.444244,143.475525 
	C307.986938,147.821320 310.969879,156.270523 307.224060,164.016022 
	C303.566376,171.579391 294.556183,174.726166 286.855774,171.129532 
	C279.275818,167.589157 276.297333,158.843414 279.437775,150.787567 
	C280.350647,148.445877 280.571747,145.298752 279.821991,142.928192 
	C272.963684,121.243690 265.824005,99.648140 258.751068,78.031662 
	C258.466248,77.161148 258.027893,76.340858 257.468140,75.053375 
	C244.840744,96.294296 232.441879,117.151321 220.042480,138.008026 
	C216.729050,143.581451 213.366653,149.126434 210.111069,154.733429 
	C205.345474,162.941086 198.250626,167.047867 188.780319,167.081146 
	C184.804810,167.095123 180.829208,167.083466 177.811157,167.083466 
	C174.951828,171.954697 172.494598,176.140900 170.037369,180.327103 
	C169.824020,180.202438 169.610687,180.077774 169.397339,179.953110 
	C169.383667,180.119202 169.315506,180.303589 169.364227,180.448730 
	C170.940826,185.146179 171.242752,191.416199 174.494431,194.068802 
	C177.452881,196.482178 183.617661,194.965103 188.594604,195.190826 
	C188.594604,198.058716 188.594604,200.653961 188.594604,204.012360 
	C183.142746,204.566071 177.751251,205.113647 171.905869,205.681915 
M102.361305,111.818718 
	C94.674362,124.698975 86.987411,137.579224 79.144073,150.721527 
	C102.180794,150.721527 124.445610,150.721527 147.155228,150.721527 
	C141.864624,134.501465 136.691879,118.595024 131.485779,102.699509 
	C128.339630,93.093552 128.311935,93.279663 118.118126,93.026314 
	C114.634636,92.939743 112.731148,94.110046 111.145653,97.058945 
	C108.551506,101.883850 105.590820,106.511688 102.361305,111.818718 
z"/>
<path fill="#05B6FC" opacity="1.000000" stroke="none" 
	d="
M335.798218,209.859177 
	C310.369720,230.194763 276.798889,228.398300 254.186249,212.265793 
	C216.482056,185.366592 217.773804,126.538300 256.820404,101.797913 
	C257.918762,101.101974 259.173645,100.653084 260.779999,99.886436 
	C262.665924,105.477150 264.692810,110.728981 266.076508,116.145119 
	C266.402802,117.422371 264.925903,119.670532 263.665100,120.766182 
	C246.075912,136.051453 240.941452,158.356750 250.522095,178.531998 
	C260.455902,199.450974 284.567108,210.118927 307.183014,203.601425 
	C328.599518,197.429596 343.320892,175.280716 340.880005,152.902969 
	C338.382843,130.009171 319.127747,111.448410 296.331451,110.422859 
	C292.517456,110.251274 291.123291,108.935234 290.279846,105.560303 
	C289.125977,100.943314 287.517395,96.439972 285.970947,91.460274 
	C304.870422,89.695465 321.193817,94.334244 335.487488,105.792984 
	C368.142609,131.971420 368.994080,182.309555 335.798218,209.859177 
z"/>
<path fill="#05B6FC" opacity="1.000000" stroke="none" 
	d="
M25.152567,108.123108 
	C43.551060,92.317436 64.276085,87.896400 88.347023,93.435623 
	C84.848656,99.250244 81.757431,104.651642 78.314362,109.818588 
	C77.814560,110.568619 75.611687,110.422432 74.228058,110.309441 
	C49.169621,108.263062 27.073383,125.786057 22.708986,150.600937 
	C20.639008,162.370316 23.571880,172.811844 29.332355,182.664581 
	C35.464401,193.152817 44.719090,200.052612 56.306458,203.591080 
	C79.081024,210.545807 103.894035,199.032761 113.412056,177.015121 
	C114.801895,173.800064 116.333611,172.303528 119.901627,172.687088 
	C122.866241,173.005798 125.892097,172.740585 128.890656,172.760773 
	C134.846573,172.800888 135.270401,173.321960 133.323090,179.181961 
	C129.345871,191.150421 122.589722,201.323776 112.775101,209.251038 
	C72.872925,241.479965 15.226572,221.518372 4.502717,171.372284 
	C-0.733052,146.889175 6.719760,125.689064 25.152567,108.123108 
z"/>
<path fill="#F7F8FD" opacity="1.000000" stroke="none" 
	d="
M102.573021,111.520683 
	C105.590820,106.511688 108.551506,101.883850 111.145653,97.058945 
	C112.731148,94.110046 114.634636,92.939743 118.118126,93.026314 
	C128.311935,93.279663 128.339630,93.093552 131.485779,102.699509 
	C136.691879,118.595024 141.864624,134.501465 147.155228,150.721527 
	C124.445610,150.721527 102.180794,150.721527 79.144073,150.721527 
	C86.987411,137.579224 94.674362,124.698975 102.573021,111.520683 
M112.740150,136.829163 
	C113.669312,139.131119 114.493263,141.484451 115.579842,143.709534 
	C116.009720,144.589844 117.004913,145.789474 117.774712,145.813385 
	C123.498245,145.991150 129.229828,145.909851 135.623749,145.909851 
	C132.177475,129.328308 124.528450,116.350220 111.672523,105.807060 
	C108.169472,111.673843 104.990837,116.997299 102.230850,121.619629 
	C105.965675,126.969719 109.176628,131.569366 112.740150,136.829163 
z"/>
<path fill="#05B5FB" opacity="1.000000" stroke="none" 
	d="
M112.563866,136.499084 
	C109.176628,131.569366 105.965675,126.969719 102.230850,121.619629 
	C104.990837,116.997299 108.169472,111.673843 111.672523,105.807060 
	C124.528450,116.350220 132.177475,129.328308 135.623749,145.909851 
	C129.229828,145.909851 123.498245,145.991150 117.774712,145.813385 
	C117.004913,145.789474 116.009720,144.589844 115.579842,143.709534 
	C114.493263,141.484451 113.669312,139.131119 112.563866,136.499084 
z"/>
</svg>